# File generated by ImageToStl.com - Free Image and 3D model conversion tools

o obj1
v -0.04 0.02 0.01
v -0.04 -0.02 0.01
v -0.04 0.02 0.01
v -0.04 -0.02 0.01
v -0.04 0.02 0
v -0.04 0.02 0
v -0.04 0.03 0
v -0.04 0.03 0
v -0.04 0.03 0
v -0.04 0.03 0
v -0.04 0.03 -0
v -0.04 0.03 -0
v -0.04 0.03 -0.01
v -0.04 0.03 -0.01
v -0.04 0.03 -0.01
v -0.04 0.03 -0.01
v -0.04 0.03 -0.01
v -0.04 0.03 -0.01
v -0.04 0.01 -0.04
v -0.04 0.01 -0.04
v -0.04 0.01 -0.05
v -0.04 0.01 -0.05
v -0.04 0 -0.05
v -0.04 0 -0.05
v -0.04 -0 -0.05
v -0.04 -0 -0.05
v -0.04 -0 -0.05
v -0.04 -0 -0.05
v -0.04 -0.01 -0.05
v -0.04 -0.01 -0.05
v -0.04 -0.01 -0.04
v -0.04 -0.01 -0.04
v -0.04 -0.03 -0.01
v -0.04 -0.03 -0.01
v -0.04 -0.03 -0.01
v -0.04 -0.03 -0.01
v -0.04 -0.03 -0.01
v -0.04 -0.03 -0.01
v -0.04 -0.03 -0
v -0.04 -0.03 -0
v -0.04 -0.03 -0
v -0.04 -0.03 -0
v -0.04 -0.03 0
v -0.04 -0.03 0
v -0.04 -0.03 0
v -0.04 -0.03 0
v -0.04 -0.02 0.01
v -0.04 -0.02 0.01
v -0 0.04 -0.05
v -0.02 0.04 -0.05
v -0 0.04 -0.03
v -0.02 0.04 0.02
v -0 0.04 -0.03
v -0 0.04 -0.03
v 0 0.04 -0.02
v 0 0.04 0.02
v -0.02 -0.04 0.02
v -0.02 -0.04 -0.05
v -0 -0.04 -0.03
v -0 -0.04 -0.05
v 0 -0.04 0.02
v 0 -0.04 -0.02
v -0 -0.04 -0.03
v -0 -0.04 -0.03
v 0 0.04 0.02
v 0 0.03 0.02
v 0 -0.03 0.02
v 0 -0.04 0.02
v 0 -0.03 0.02
v 0 0.03 0.02
v -0 -0.03 -0.06
v -0 0.03 -0.06
v -0 0.03 -0.06
v -0 0.04 -0.05
v -0 -0.04 -0.05
v -0 -0.03 -0.06
v -0.02 0.04 0.02
v -0.02 0.03 0.02
v -0.02 0.03 0.02
v -0.02 0.03 -0.06
v -0.02 0.03 -0.06
v -0.02 0.04 -0.05
v -0.02 -0.04 -0.05
v -0.02 -0.03 -0.06
v -0.02 -0.03 -0.06
v -0.02 -0.03 0.02
v -0.02 -0.03 0.02
v -0.02 -0.04 0.02
v -0.02 0.04 -0.06
v -0.04 0.04 -0.06
v -0.04 0.05 -0.06
v -0.02 0.05 -0.06
v -0.04 0.05 -0.05
v -0.02 0.05 -0.05
v -0.04 0.05 -0.05
v -0.02 0.05 -0.05
v -0.02 -0.04 0.02
v -0.02 -0.04 0.02
v -0.02 -0.04 0.02
v -0.02 -0.04 0.02
v -0.02 -0.04 0.02
v -0.02 -0.04 0.01
v -0.02 -0.04 0.01
v -0.02 -0.05 -0.05
v -0.02 -0.04 -0.05
v -0.02 -0.05 0.01
v -0.02 -0.04 -0.06
v -0.02 -0.04 -0.06
v -0.02 -0.04 0.01
v -0.02 -0.04 -0.05
v -0.02 -0.04 -0.05
v -0.02 -0.04 -0.05
v -0.02 -0.04 -0.05
v -0.02 -0.04 -0.06
v -0.02 -0.05 -0.05
v -0.02 -0.05 -0.05
v -0.02 -0.05 -0.04
v -0.02 -0.05 0.01
v -0.02 -0.05 0.01
v -0.02 -0.05 0.01
v -0.04 -0.05 0.02
v -0.04 -0.05 -0.05
v -0.02 -0.05 -0.04
v -0.02 -0.05 -0.05
v -0.02 -0.05 0.02
v -0.02 -0.05 0.01
v -0.02 -0.04 -0.06
v -0.02 -0.04 -0.06
v -0.04 -0.04 -0.06
v -0.02 0.04 -0.06
v -0.02 0.04 -0.06
v -0.02 0.04 0.02
v -0.02 0.04 0.02
v -0.02 0.04 0.02
v -0.04 0.04 0.02
v -0.04 -0.04 0.02
v -0.02 -0.04 0.02
v -0.02 -0.04 0.02
v -0.02 0.05 -0.04
v -0.04 0.05 0.02
v -0.02 0.05 0.02
v -0.02 0.05 0.01
v -0.02 0.05 0.01
v -0.02 0.05 -0.04
v -0.04 0.05 0.02
v -0.04 0.05 0.02
v -0.04 -0.05 -0.05
v -0.04 -0.05 -0.06
v -0.04 -0.05 0.02
v -0.04 -0.05 0.02
v -0.02 -0.04 0.02
v -0.02 -0.04 0.02
v -0.02 -0.04 0.02
v -0.02 -0.04 0.02
v -0.02 -0.05 0.01
v -0.02 -0.05 0.01
v -0.02 -0.05 0.02
v -0.02 -0.05 0.01
v -0.02 -0.05 0.02
v -0.02 -0.04 0.01
v -0.02 -0.04 0.01
v -0.02 -0.04 0.01
v -0.02 -0.05 -0.05
v -0.02 -0.05 -0.06
v -0.02 0.05 0.02
v -0.02 0.05 0.02
v -0.02 0.04 0.02
v -0.02 0.04 0.02
v -0.02 0.04 0.02
v -0.02 0.04 0.02
v -0.02 0.05 0.01
v -0.02 0.05 0.01
v -0.02 0.05 0.01
v -0.02 0.04 0.01
v -0.02 0.04 0.01
v -0.02 0.04 0.02
v -0.02 0.04 0.02
v -0.02 0.04 0.01
v -0.02 0.04 0.01
v -0.02 0.05 0.01
v -0.02 0.05 0.01
v -0.02 0.05 0.01
v -0.02 0.04 0.02
v -0.02 0.04 0.02
v -0.02 0.04 0.01
v -0.02 0.04 0.01
v -0.02 -0.04 -0.05
v -0.02 -0.04 -0.05
v -0.02 -0.05 -0.05
v -0.02 -0.05 -0.05
v -0.02 -0.05 -0.05
v -0.02 -0.04 -0.05
v -0.02 -0.04 -0.05
v -0.02 -0.04 -0.06
v -0.02 -0.04 -0.06
v -0.02 -0.04 -0.05
v -0.02 0.04 -0.05
v -0.02 0.04 -0.05
v -0.02 0.04 -0.05
v -0.02 0.04 -0.05
v -0.02 0.04 -0.06
v -0.02 0.04 -0.06
v -0.02 0.05 -0.05
v -0.02 0.05 -0.05
v -0.02 0.05 -0.05
v -0.02 0.04 -0.05
v -0.02 0.04 -0.05
v -0.02 0.04 -0.05
v -0.02 0.04 -0.05
v -0.02 0.05 -0.05
v -0.02 0.05 -0.05
v -0.02 0.05 -0.05
v -0.02 0.04 -0.06
v -0.02 0.04 -0.06
v -0.02 0.04 -0.05
v -0.02 0.04 -0.05
vn 0 0 1
vn 0 0.16 0.99
vn 0 0.45 0.89
vn 0 0.71 0.71
vn 0 0.89 0.45
vn 0 0.99 0.15
vn 0 0.99 -0.16
vn 0 0.89 -0.46
vn 0 0.81 -0.59
vn 0 0.7 -0.71
vn 0 0.45 -0.89
vn 0 0.16 -0.99
vn -0 -0.16 -0.99
vn -0 -0.45 -0.89
vn -0 -0.7 -0.71
vn -0 -0.81 -0.59
vn -0 -0.89 -0.46
vn -0 -0.98 -0.18
vn -0 -0.99 0.12
vn -0 -0.91 0.41
vn -0 -0.75 0.66
vn -0 -0.52 0.86
vn -0 -0.24 0.97
vn 0 0.06 1
vn -1 0 0
vn 0 1 -0
vn -0 -1 0
vn 1 -0 0
vn 0 0.97 0.26
vn 0 0.71 0.71
vn 0 0.26 0.97
vn 0 0.26 -0.97
vn 0 0.71 -0.71
vn 0 0.97 -0.26
vn -0 -0.97 -0.26
vn -0 -0.71 -0.71
vn -0 -0.26 -0.97
vn -0 -0.26 0.97
vn -0 -0.71 0.71
vn -0 -0.97 0.26
vn 0.26 -0 -0.97
vn 0.71 -0 -0.71
vn 0.97 -0 -0.26
vn 0 -0 -1
f 1//1 2//1 3//1
f 3//1 2//1 4//1
f 1//2 3//2 5//2
f 1//2 5//2 6//2
f 6//3 5//3 7//3
f 6//3 7//3 8//3
f 8//4 7//4 9//4
f 8//4 9//4 10//4
f 10//5 9//5 11//5
f 10//5 11//5 12//5
f 12//6 11//6 13//6
f 12//6 13//6 14//6
f 14//7 13//7 15//7
f 14//7 15//7 16//7
f 16//8 15//8 17//8
f 16//8 17//8 18//8
f 19//9 18//9 20//9
f 20//9 18//9 17//9
f 19//10 20//10 21//10
f 19//10 21//10 22//10
f 22//11 21//11 23//11
f 22//11 23//11 24//11
f 24//12 23//12 25//12
f 24//12 25//12 26//12
f 26//13 25//13 27//13
f 26//13 27//13 28//13
f 28//14 27//14 29//14
f 28//14 29//14 30//14
f 30//15 29//15 31//15
f 30//15 31//15 32//15
f 33//16 32//16 34//16
f 34//16 32//16 31//16
f 33//17 34//17 35//17
f 33//17 35//17 36//17
f 36//18 35//18 37//18
f 36//18 37//18 38//18
f 38//19 37//19 39//19
f 38//19 39//19 40//19
f 40//20 39//20 41//20
f 40//20 41//20 42//20
f 42//21 41//21 43//21
f 42//21 43//21 44//21
f 44//22 43//22 45//22
f 44//22 45//22 46//22
f 46//23 45//23 47//23
f 46//23 47//23 48//23
f 48//24 47//24 4//24
f 48//24 4//24 2//24
f 32//25 2//25 30//25
f 30//25 2//25 28//25
f 42//25 44//25 46//25
f 18//25 19//25 2//25
f 2//25 19//25 22//25
f 32//25 33//25 2//25
f 2//25 33//25 36//25
f 2//25 36//25 38//25
f 38//25 40//25 2//25
f 2//25 40//25 42//25
f 2//25 42//25 48//25
f 48//25 42//25 46//25
f 2//25 1//25 18//25
f 18//25 1//25 6//25
f 18//25 6//25 8//25
f 22//25 24//25 2//25
f 2//25 24//25 26//25
f 2//25 26//25 28//25
f 14//25 16//25 12//25
f 12//25 16//25 18//25
f 12//25 18//25 10//25
f 10//25 18//25 8//25
f 49//26 50//26 51//26
f 51//26 50//26 52//26
f 53//26 54//26 55//26
f 55//26 54//26 51//26
f 55//26 51//26 56//26
f 56//26 51//26 52//26
f 57//27 58//27 59//27
f 59//27 58//27 60//27
f 61//27 57//27 62//27
f 62//27 57//27 59//27
f 62//27 59//27 63//27
f 63//27 59//27 64//27
f 56//28 65//28 66//28
f 67//28 68//28 69//28
f 69//28 68//28 61//28
f 69//28 61//28 62//28
f 62//28 55//28 69//28
f 69//28 55//28 56//28
f 69//28 56//28 70//28
f 70//28 56//28 66//28
f 71//28 72//28 51//28
f 73//28 74//28 72//28
f 72//28 74//28 49//28
f 72//28 49//28 51//28
f 75//28 76//28 60//28
f 60//28 76//28 71//28
f 60//28 71//28 59//28
f 59//28 71//28 51//28
f 56//29 52//29 77//29
f 56//29 77//29 65//29
f 65//30 77//30 78//30
f 65//30 78//30 66//30
f 66//31 78//31 79//31
f 66//31 79//31 70//31
f 72//32 80//32 81//32
f 72//32 81//32 73//32
f 73//33 81//33 82//33
f 73//33 82//33 74//33
f 74//34 82//34 50//34
f 74//34 50//34 49//34
f 60//35 58//35 83//35
f 60//35 83//35 75//35
f 75//36 83//36 84//36
f 75//36 84//36 76//36
f 76//37 84//37 85//37
f 76//37 85//37 71//37
f 69//38 86//38 87//38
f 69//38 87//38 67//38
f 67//39 87//39 88//39
f 67//39 88//39 68//39
f 68//40 88//40 57//40
f 68//40 57//40 61//40
f 59//41 51//41 54//41
f 59//41 54//41 64//41
f 64//42 54//42 53//42
f 64//42 53//42 63//42
f 63//43 53//43 55//43
f 63//43 55//43 62//43
f 89//32 90//32 91//32
f 89//32 91//32 92//32
f 92//33 91//33 93//33
f 92//33 93//33 94//33
f 94//34 93//34 95//34
f 94//34 95//34 96//34
f 87//28 86//28 97//28
f 57//28 88//28 98//28
f 87//28 97//28 88//28
f 88//28 97//28 99//28
f 88//28 99//28 98//28
f 98//28 100//28 57//28
f 57//28 100//28 101//28
f 57//28 101//28 58//28
f 58//28 101//28 102//28
f 58//28 102//28 103//28
f 104//28 105//28 106//28
f 83//28 107//28 84//28
f 84//28 107//28 108//28
f 84//28 108//28 85//28
f 106//28 105//28 109//28
f 109//28 105//28 110//28
f 109//28 110//28 103//28
f 103//28 110//28 111//28
f 103//28 111//28 58//28
f 111//28 112//28 58//28
f 58//28 112//28 113//28
f 58//28 113//28 83//28
f 83//28 113//28 114//28
f 83//28 114//28 107//28
f 115//28 116//28 117//28
f 117//28 116//28 104//28
f 117//28 104//28 118//28
f 118//28 104//28 106//28
f 118//28 106//28 119//28
f 119//28 106//28 120//28
f 121//27 122//27 123//27
f 123//27 122//27 124//27
f 125//27 121//27 126//27
f 126//27 121//27 123//27
f 126//27 123//27 118//27
f 118//27 123//27 117//27
f 127//44 128//44 129//44
f 130//44 131//44 80//44
f 72//44 71//44 80//44
f 80//44 71//44 85//44
f 85//44 108//44 127//44
f 85//44 127//44 80//44
f 80//44 127//44 129//44
f 80//44 129//44 130//44
f 130//44 129//44 90//44
f 130//44 90//44 89//44
f 79//1 132//1 133//1
f 134//1 135//1 133//1
f 133//1 135//1 136//1
f 137//1 97//1 86//1
f 86//1 69//1 70//1
f 70//1 79//1 86//1
f 86//1 79//1 133//1
f 86//1 133//1 137//1
f 137//1 133//1 136//1
f 137//1 136//1 138//1
f 139//26 96//26 95//26
f 140//26 141//26 142//26
f 143//26 144//26 142//26
f 142//26 144//26 139//26
f 142//26 139//26 140//26
f 140//26 139//26 95//26
f 7//25 5//25 135//25
f 135//25 5//25 3//25
f 135//25 3//25 136//25
f 136//25 3//25 4//25
f 13//25 140//25 15//25
f 15//25 140//25 95//25
f 13//25 11//25 140//25
f 140//25 11//25 9//25
f 140//25 9//25 145//25
f 145//25 9//25 7//25
f 145//25 7//25 146//25
f 146//25 7//25 135//25
f 31//25 29//25 129//25
f 29//25 27//25 129//25
f 129//25 27//25 25//25
f 129//25 25//25 90//25
f 25//25 23//25 90//25
f 90//25 23//25 21//25
f 90//25 21//25 20//25
f 122//25 121//25 37//25
f 91//25 90//25 93//25
f 93//25 90//25 20//25
f 93//25 20//25 95//25
f 95//25 20//25 17//25
f 95//25 17//25 15//25
f 37//25 35//25 122//25
f 122//25 35//25 34//25
f 122//25 34//25 147//25
f 147//25 34//25 31//25
f 147//25 31//25 148//25
f 148//25 31//25 129//25
f 43//25 41//25 121//25
f 121//25 41//25 39//25
f 121//25 39//25 37//25
f 4//25 47//25 136//25
f 136//25 47//25 45//25
f 136//25 45//25 149//25
f 149//25 45//25 43//25
f 149//25 43//25 150//25
f 150//25 43//25 121//25
f 101//27 100//27 151//27
f 151//27 100//27 152//27
f 137//28 138//28 153//28
f 153//28 138//28 154//28
f 126//28 155//28 125//28
f 125//28 155//28 156//28
f 125//28 156//28 157//28
f 157//28 156//28 158//28
f 157//28 158//28 159//28
f 159//28 158//28 160//28
f 159//28 160//28 161//28
f 154//28 138//28 152//28
f 152//28 138//28 159//28
f 152//28 159//28 151//28
f 151//28 159//28 161//28
f 151//28 161//28 162//28
f 160//1 158//1 109//1
f 109//1 158//1 106//1
f 126//40 118//40 119//40
f 126//40 119//40 155//40
f 155//39 119//39 120//39
f 155//39 120//39 156//39
f 156//38 120//38 106//38
f 156//38 106//38 158//38
f 152//40 100//40 98//40
f 152//40 98//40 154//40
f 154//39 98//39 99//39
f 154//39 99//39 153//39
f 153//38 99//38 97//38
f 153//38 97//38 137//38
f 160//38 109//38 161//38
f 161//38 109//38 103//38
f 161//39 103//39 162//39
f 162//39 103//39 102//39
f 162//40 102//40 151//40
f 151//40 102//40 101//40
f 124//35 122//35 147//35
f 124//35 147//35 163//35
f 163//36 147//36 148//36
f 163//36 148//36 164//36
f 164//37 148//37 129//37
f 164//37 129//37 128//37
f 141//29 140//29 145//29
f 141//29 145//29 165//29
f 165//30 145//30 146//30
f 165//30 146//30 166//30
f 166//31 146//31 135//31
f 166//31 135//31 134//31
f 138//38 136//38 149//38
f 138//38 149//38 159//38
f 159//39 149//39 150//39
f 159//39 150//39 157//39
f 157//40 150//40 121//40
f 157//40 121//40 125//40
f 167//26 168//26 169//26
f 169//26 168//26 170//26
f 171//28 172//28 141//28
f 141//28 172//28 173//28
f 141//28 173//28 142//28
f 167//28 174//28 175//28
f 133//28 176//28 134//28
f 134//28 176//28 177//28
f 134//28 177//28 166//28
f 166//28 177//28 168//28
f 166//28 168//28 165//28
f 165//28 168//28 167//28
f 141//28 165//28 171//28
f 171//28 165//28 167//28
f 171//28 167//28 178//28
f 178//28 167//28 175//28
f 179//1 180//1 178//1
f 178//1 180//1 171//1
f 143//29 142//29 173//29
f 143//29 173//29 181//29
f 181//30 173//30 172//30
f 181//30 172//30 182//30
f 182//31 172//31 171//31
f 182//31 171//31 180//31
f 170//29 168//29 177//29
f 170//29 177//29 183//29
f 183//30 177//30 176//30
f 183//30 176//30 184//30
f 184//31 176//31 133//31
f 184//31 133//31 132//31
f 167//29 169//29 174//29
f 174//29 169//29 185//29
f 174//30 185//30 175//30
f 175//30 185//30 186//30
f 175//31 186//31 178//31
f 178//31 186//31 179//31
f 187//27 188//27 112//27
f 112//27 188//27 113//27
f 189//28 190//28 124//28
f 124//28 190//28 191//28
f 124//28 191//28 123//28
f 187//28 192//28 193//28
f 127//28 194//28 128//28
f 128//28 194//28 195//28
f 128//28 195//28 164//28
f 164//28 195//28 188//28
f 164//28 188//28 163//28
f 163//28 188//28 187//28
f 124//28 163//28 189//28
f 189//28 163//28 187//28
f 189//28 187//28 196//28
f 196//28 187//28 193//28
f 105//44 104//44 196//44
f 196//44 104//44 189//44
f 117//35 123//35 191//35
f 117//35 191//35 115//35
f 115//36 191//36 190//36
f 115//36 190//36 116//36
f 116//37 190//37 189//37
f 116//37 189//37 104//37
f 113//35 188//35 195//35
f 113//35 195//35 114//35
f 114//36 195//36 194//36
f 114//36 194//36 107//36
f 107//37 194//37 127//37
f 107//37 127//37 108//37
f 187//35 112//35 192//35
f 192//35 112//35 111//35
f 192//36 111//36 193//36
f 193//36 111//36 110//36
f 193//37 110//37 196//37
f 196//37 110//37 105//37
f 197//26 198//26 199//26
f 199//26 198//26 200//26
f 130//28 89//28 201//28
f 201//28 89//28 202//28
f 139//28 203//28 96//28
f 96//28 203//28 204//28
f 96//28 204//28 94//28
f 94//28 204//28 205//28
f 94//28 205//28 92//28
f 92//28 205//28 206//28
f 92//28 206//28 207//28
f 202//28 89//28 200//28
f 200//28 89//28 92//28
f 200//28 92//28 199//28
f 199//28 92//28 207//28
f 199//28 207//28 208//28
f 206//44 205//44 209//44
f 209//44 205//44 210//44
f 139//34 144//34 211//34
f 139//34 211//34 203//34
f 203//33 211//33 212//33
f 203//33 212//33 204//33
f 204//32 212//32 210//32
f 204//32 210//32 205//32
f 200//34 198//34 213//34
f 200//34 213//34 202//34
f 202//33 213//33 214//33
f 202//33 214//33 201//33
f 201//32 214//32 131//32
f 201//32 131//32 130//32
f 206//32 209//32 207//32
f 207//32 209//32 215//32
f 207//33 215//33 208//33
f 208//33 215//33 216//33
f 208//34 216//34 199//34
f 199//34 216//34 197//34
f 77//28 184//28 78//28
f 78//28 184//28 132//28
f 78//28 132//28 79//28
f 197//28 216//28 185//28
f 185//28 216//28 215//28
f 185//28 215//28 186//28
f 50//28 82//28 131//28
f 131//28 82//28 81//28
f 131//28 81//28 80//28
f 214//28 213//28 131//28
f 131//28 213//28 198//28
f 180//28 179//28 210//28
f 198//28 197//28 131//28
f 131//28 197//28 185//28
f 131//28 185//28 50//28
f 50//28 185//28 169//28
f 50//28 169//28 52//28
f 52//28 169//28 170//28
f 52//28 170//28 77//28
f 77//28 170//28 183//28
f 77//28 183//28 184//28
f 186//28 215//28 179//28
f 179//28 215//28 209//28
f 179//28 209//28 210//28
f 181//28 182//28 143//28
f 143//28 182//28 180//28
f 143//28 180//28 144//28
f 144//28 180//28 210//28
f 144//28 210//28 211//28
f 211//28 210//28 212//28
# Vertices: 216, normals: 44, texture coordinates: 0, faces: 428
